<?xml version="1.0" encoding="UTF-8" standalone="no"?>
<!-- Created with Inkscape (http://www.inkscape.org/) -->

<svg
   width="5.8208475mm"
   height="5.8208361mm"
   viewBox="0 0 5.8208475 5.8208361"
   version="1.1"
   id="svg1"
   xml:space="preserve"
   xmlns="http://www.w3.org/2000/svg"
   xmlns:svg="http://www.w3.org/2000/svg"><defs
     id="defs1" /><g
     id="layer5"
     transform="translate(-130.69655,-43.386521)"><g
       style="fill:none"
       id="g3"
       transform="matrix(0.05433798,0,0,0.05433838,512.38129,43.386521)"><path
         fill="#de5833"
         fill-rule="evenodd"
         d="m -6970.7098,107.122 c 29.581,0 53.561,-23.98 53.561,-53.561 0,-29.581 -23.98,-53.561 -53.56,-53.561 -29.583,0 -53.563,23.98 -53.563,53.561 0,29.581 23.98,53.561 53.561,53.561 z"
         clip-rule="evenodd"
         id="path2-5" /><path
         fill="#dddddd"
         fill-rule="evenodd"
         d="m -6963.1778,93.522 c 0,-0.418 0.103,-0.513 -1.227,-3.165 -3.535,-7.079 -7.088,-17.059 -5.472,-23.495 0.294,-1.17 -3.33,-43.304 -5.892,-44.661 -2.848,-1.518 -6.351,-3.925 -9.556,-4.46 -1.626,-0.26 -3.758,-0.138 -5.425,0.087 -0.296,0.04 -0.308,0.572 -0.025,0.668 1.094,0.37 2.423,1.014 3.206,1.988 0.148,0.184 -0.051,0.474 -0.287,0.482 -0.738,0.028 -2.077,0.337 -3.844,1.838 -0.204,0.173 -0.035,0.495 0.228,0.443 3.797,-0.75 7.674,-0.38 9.96,1.696 0.148,0.135 0.07,0.377 -0.123,0.43 -19.831,5.387 -15.904,22.637 -10.625,43.804 4.654,18.666 6.435,24.81 7.012,26.727 a 0.72,0.72 0 0 0 0.424,0.469 c 6.85,2.697 21.646,2.805 21.646,-1.805 z"
         clip-rule="evenodd"
         id="path3-8" /><path
         fill="#ffffff"
         d="m -6960.4578,97.498 c -2.406,0.941 -7.114,1.36 -9.833,1.36 -3.988,0 -9.73,-0.628 -11.821,-1.57 -1.293,-3.976 -5.16,-16.303 -8.978,-31.956 l -0.374,-1.53 V 63.79 c -4.54,-18.542 -8.248,-33.687 12.074,-38.445 0.185,-0.043 0.276,-0.265 0.153,-0.411 -2.331,-2.766 -6.7,-3.673 -12.222,-1.768 -0.227,0.079 -0.424,-0.15 -0.283,-0.344 1.083,-1.493 3.2,-2.64 4.244,-3.144 0.216,-0.104 0.203,-0.42 -0.025,-0.491 a 23.299,23.299 0 0 0 -3.156,-0.753 c -0.31,-0.05 -0.338,-0.58 -0.027,-0.623 7.83,-1.053 16.006,1.298 20.109,6.466 a 0.272,0.272 0 0 0 0.155,0.096 c 15.024,3.226 16.1,26.977 14.369,28.059 -0.341,0.213 -1.434,0.09 -2.877,-0.07 -5.846,-0.655 -17.422,-1.95 -7.868,15.856 0.094,0.176 -0.03,0.409 -0.228,0.44 -5.388,0.837 1.517,17.719 6.591,28.84 z"
         id="path4-6" /><path
         fill="#3ca82b"
         d="m -6953.7368,75.904 c -1.144,-0.53 -5.542,2.624 -8.461,5.045 -0.61,-0.863 -1.76,-1.49 -4.355,-1.04 -2.27,0.396 -3.524,0.943 -4.084,1.887 -3.584,-1.359 -9.614,-3.456 -11.07,-1.43 -1.593,2.214 0.397,12.687 2.512,14.047 1.104,0.71 6.386,-2.685 9.144,-5.026 0.445,0.627 1.162,0.986 2.634,0.952 2.228,-0.052 5.841,-0.57 6.401,-1.608 0.034,-0.063 0.064,-0.137 0.089,-0.222 2.835,1.06 7.824,2.18 8.939,2.014 2.905,-0.437 -0.405,-13.996 -1.749,-14.619 z"
         id="path5-3" /><path
         fill="#4cba3c"
         d="m -6961.9308,81.26 c 0.121,0.214 0.217,0.44 0.3,0.67 0.404,1.13 1.062,4.726 0.564,5.614 -0.498,0.888 -3.732,1.317 -5.727,1.351 -1.995,0.034 -2.444,-0.695 -2.848,-1.825 -0.324,-0.904 -0.483,-3.03 -0.479,-4.247 -0.082,-1.806 0.578,-2.44 3.627,-2.934 2.257,-0.365 3.45,0.06 4.138,0.786 3.204,-2.39 8.549,-5.765 9.07,-5.148 2.6,3.075 2.928,10.394 2.365,13.34 -0.184,0.962 -8.791,-0.955 -8.791,-1.993 0,-4.311 -1.119,-5.494 -2.219,-5.615 z m -18.855,-1.347 c 0.706,-1.116 6.422,0.272 9.56,1.668 0,0 -0.644,2.922 0.382,6.364 0.3,1.007 -7.22,5.488 -8.201,4.717 -1.134,-0.891 -3.222,-10.404 -1.74,-12.75 z"
         id="path6" /><path
         fill="#ffcc33"
         fill-rule="evenodd"
         d="m -6978.0158,57.249 c 0.462,-2.012 2.617,-5.802 10.31,-5.71 3.89,-0.016 8.722,-0.001 11.926,-0.365 a 42.885,42.885 0 0 0 10.65,-2.59 c 3.331,-1.27 4.513,-0.988 4.927,-0.227 0.456,0.835 -0.081,2.278 -1.245,3.606 -2.223,2.536 -6.219,4.502 -13.277,5.085 -7.058,0.583 -11.734,-1.31 -13.746,1.772 -0.868,1.33 -0.197,4.463 6.628,5.45 9.223,1.33 16.798,-1.604 17.734,0.168 0.936,1.772 -4.455,5.38 -13.693,5.455 -9.239,0.076 -15.009,-3.234 -17.055,-4.88 -2.597,-2.087 -3.758,-5.132 -3.16,-7.764 z"
         clip-rule="evenodd"
         id="path7" /><g
         fill="#14307e"
         opacity="0.8"
         id="g9"
         transform="translate(-7062.6558)"><path
           d="m 96.404,35.256 c 0.516,-0.844 1.658,-1.495 3.528,-1.495 1.87,0 2.75,0.744 3.359,1.573 0.124,0.17 -0.064,0.368 -0.256,0.285 l -0.14,-0.061 c -0.684,-0.299 -1.524,-0.666 -2.963,-0.686 -1.538,-0.022 -2.508,0.363 -3.12,0.695 -0.205,0.112 -0.53,-0.111 -0.408,-0.311 z m -21.053,1.079 c 1.816,-0.759 3.243,-0.66 4.252,-0.422 0.213,0.05 0.36,-0.178 0.19,-0.315 -0.783,-0.632 -2.535,-1.416 -4.821,-0.564 -2.039,0.76 -3,2.34 -3.006,3.379 -10e-4,0.245 0.503,0.265 0.633,0.058 0.352,-0.56 0.937,-1.377 2.752,-2.136 z"
           id="path8" /><path
           fill-rule="evenodd"
           d="m 101.521,46.799 c -1.606,0 -2.908,-1.299 -2.908,-2.897 0,-1.598 1.302,-2.897 2.908,-2.897 1.605,0 2.907,1.299 2.907,2.897 0,1.598 -1.302,2.897 -2.907,2.897 z m 2.047,-3.857 a 0.7525,0.7525 0 0 0 -1.505,0 0.7525,0.7525 0 0 0 1.505,0 z m -21.31,2.965 a 3.383,3.383 0 0 1 -3.389,3.378 c -1.87,0 -3.389,-1.513 -3.389,-3.378 0,-1.865 1.52,-3.379 3.389,-3.379 a 3.385,3.385 0 0 1 3.389,3.379 z m -0.999,-1.12 a 0.878,0.878 0 0 0 -1.755,0 0.8775,0.8775 0 0 0 1.755,0 z"
           clip-rule="evenodd"
           id="path9" /></g><path
         fill="#ffffff"
         fill-rule="evenodd"
         d="m -6970.7098,98.544 c 24.843,0 44.983,-20.14 44.983,-44.983 0,-24.843 -20.14,-44.983 -44.983,-44.983 -24.843,0 -44.983,20.14 -44.983,44.983 0,24.843 20.14,44.983 44.983,44.983 z m 0,4.184 c 27.154,0 49.167,-22.013 49.167,-49.167 0,-27.154 -22.013,-49.167 -49.167,-49.167 -27.154,0 -49.166,22.013 -49.166,49.166 0,27.153 22.013,49.167 49.167,49.167 z"
         clip-rule="evenodd"
         id="path10" /></g></g></svg>
