<?xml version="1.0" encoding="UTF-8" standalone="no"?>
<!-- Created with Inkscape (http://www.inkscape.org/) -->

<svg
   width="5.8208332mm"
   height="5.8208332mm"
   viewBox="0 0 5.8208332 5.8208332"
   version="1.1"
   id="svg1"
   xml:space="preserve"
   xmlns="http://www.w3.org/2000/svg"
   xmlns:svg="http://www.w3.org/2000/svg"><defs
     id="defs1" /><g
     id="layer2"
     transform="translate(-121.97063,-42.830898)"><g
       id="g2"
       transform="matrix(0.26458333,0,0,0.26458333,121.70605,42.566315)"><path
         d="m 22.56,12.25 c 0,-0.78 -0.07,-1.53 -0.2,-2.25 H 12 v 4.26 h 5.92 c -0.26,1.37 -1.04,2.53 -2.21,3.31 v 2.77 h 3.57 c 2.08,-1.92 3.28,-4.74 3.28,-8.09 z"
         fill="#4285f4"
         id="path1-6" /><path
         d="m 12,23 c 2.97,0 5.46,-0.98 7.28,-2.66 L 15.71,17.57 C 14.73,18.23 13.48,18.63 12,18.63 9.14,18.63 6.71,16.7 5.84,14.1 H 2.18 v 2.84 C 3.99,20.53 7.7,23 12,23 Z"
         fill="#34a853"
         id="path2-8" /><path
         d="M 5.84,14.09 C 5.62,13.43 5.49,12.73 5.49,12 5.49,11.27 5.62,10.57 5.84,9.91 V 7.07 H 2.18 C 1.43,8.55 1,10.22 1,12 c 0,1.78 0.43,3.45 1.18,4.93 l 2.85,-2.22 z"
         fill="#fbbc05"
         id="path3-9" /><path
         d="m 12,5.38 c 1.62,0 3.06,0.56 4.21,1.64 L 19.36,3.87 C 17.45,2.09 14.97,1 12,1 7.7,1 3.99,3.47 2.18,7.07 L 5.84,9.91 C 6.71,7.31 9.14,5.38 12,5.38 Z"
         fill="#ea4335"
         id="path4" /><path
         d="M 1,1 H 23 V 23 H 1 Z"
         fill="none"
         id="path5" /></g></g></svg>
